<?xml version="1.0" encoding="UTF-8"?>
<svg id="Layer_2" data-name="Layer 2" xmlns="http://www.w3.org/2000/svg" viewBox="0 0 378 187.89">
  <defs>
    <style>
      .cls-1 {
        fill: #0db14b;
      }

      .cls-2 {
        fill: #0066b3;
      }

      .cls-3 {
        fill: #fff;
      }

      .cls-4 {
        fill: #f36f21;
      }
    </style>
  </defs>
  <g id="_1" data-name="1">
    <path class="cls-2" d="M0,158.98h52.15c18.51,0,34.56-12.77,38.73-30.8l22.92-99.27h-52.15c-18.51,0-34.56,12.77-38.73,30.8L0,158.98Z"/>
  </g>
  <g id="_2" data-name="2">
    <path class="cls-4" d="M163.21,0h52.17l-36.27,157.08c-4.16,18.03-20.22,30.8-38.73,30.8h-52.17L124.48,30.8C128.65,12.77,144.71,0,163.21,0"/>
  </g>
  <g id="t">
    <path class="cls-1" d="M189.7,158.98h52.15c18.51,0,34.56-12.77,38.73-30.8l22.92-99.27h-52.15c-18.51,0-34.56,12.77-38.73,30.8l-22.92,99.27Z"/>
  </g>
  <g id="IS">
    <g>
      <path class="cls-2" d="M336.88,125.89v-49.21h7.68v49.21h-7.68Z"/>
      <path class="cls-2" d="M373.51,122.69c-3.04,2.63-7.09,3.94-12.17,3.94s-9.02-.86-12.23-2.58l2.65-6.66c2.9,1.59,6,2.38,9.31,2.38,2.76,0,4.96-.66,6.59-1.97,1.68-1.31,2.51-3.1,2.51-5.37,0-3.08-2.63-5.78-7.88-8.09-3.9-1.77-6.73-3.49-8.5-5.17-2.76-2.54-4.15-5.66-4.15-9.38,0-4.21,1.43-7.59,4.28-10.13,2.81-2.49,6.57-3.74,11.28-3.74s8.22.86,11.08,2.58l-2.45,6.25c-2.67-1.5-5.46-2.24-8.36-2.24-2.45,0-4.42.61-5.91,1.84-1.5,1.22-2.24,2.9-2.24,5.03,0,2.99,2.76,5.76,8.29,8.29,3.85,1.77,6.62,3.44,8.29,5.03,2.72,2.54,4.08,5.67,4.08,9.38,0,4.44-1.5,7.98-4.49,10.6Z"/>
    </g>
  </g>
  <g id="r">
    <g>
      <path class="cls-2" d="M299.93,137.27c-5.99,0-10.84,4.85-10.84,10.84s4.85,10.84,10.84,10.84,10.84-4.85,10.84-10.84-4.85-10.84-10.84-10.84M299.93,156.24c-4.49,0-8.13-3.64-8.13-8.13s3.64-8.13,8.13-8.13,8.13,3.64,8.13,8.13-3.64,8.13-8.13,8.13"/>
      <path class="cls-2" d="M300.34,149.56h-1.78v3.97h-2.23v-10.84h4.03c1.28,0,2.27.29,2.96.86.7.57,1.04,1.38,1.04,2.42,0,.74-.16,1.36-.48,1.85-.32.49-.81.89-1.46,1.18l2.35,4.43v.1h-2.4l-2.03-3.97ZM298.56,147.75h1.8c.56,0,.99-.14,1.3-.43.31-.29.46-.68.46-1.18s-.14-.91-.43-1.21c-.29-.29-.74-.44-1.34-.44h-1.79v3.25Z"/>
    </g>
  </g>
  <g id="f">
    <path class="cls-3" d="M33.12,75.67l-11.73,50.8c8.47,0,15.81-5.84,17.72-14.09l2.59-11.2h23.17c8.68,0,16.22-5.99,18.17-14.45h-38l2.5-10.84h31.84c8.68,0,16.22-5.99,18.17-14.45h-46.52c-8.56,0-15.98,5.91-17.91,14.24"/>
  </g>
  <g id="p">
    <path class="cls-3" d="M187.89,74.71c1.57-6.79-3.59-13.28-10.56-13.28h-46.76l-15.01,65.04c8.5,0,15.88-5.87,17.79-14.15l2.57-11.14h31.68c8.3,0,15.51-5.73,17.38-13.82l2.92-12.64ZM170.56,86.72h-31.31l2.5-10.84h31.31l-2.5,10.84Z"/>
  </g>
  <g id="t-2" data-name="t">
    <path class="cls-3" d="M271.48,61.42h-49.06l-.27,1.16c-1.57,6.81,3.6,13.31,10.58,13.31h10.37l-11.68,50.58h.72c8.15,0,15.22-5.62,17.05-13.56l8.55-37.01h23.93l.29-1.27c1.56-6.75-3.57-13.19-10.49-13.19"/>
  </g>
</svg>