<?xml version="1.0" encoding="UTF-8"?>
<svg id="Layer_2" data-name="Layer 2" xmlns="http://www.w3.org/2000/svg" viewBox="0 0 378 187.89">
  <defs>
    <style>
      .cls-1 {
        fill: #fff;
      }
    </style>
  </defs>
  <g id="IS">
    <g>
      <path class="cls-1" d="M336.88,125.89v-49.21h7.68v49.21h-7.68Z"/>
      <path class="cls-1" d="M373.51,122.69c-3.04,2.63-7.09,3.94-12.17,3.94s-9.02-.86-12.23-2.58l2.65-6.66c2.9,1.59,6,2.38,9.31,2.38,2.76,0,4.96-.66,6.59-1.97,1.68-1.31,2.51-3.1,2.51-5.37,0-3.08-2.63-5.78-7.88-8.09-3.9-1.77-6.73-3.49-8.5-5.17-2.76-2.54-4.15-5.66-4.15-9.38,0-4.21,1.43-7.59,4.28-10.13,2.81-2.49,6.57-3.74,11.28-3.74s8.22.86,11.08,2.58l-2.45,6.25c-2.67-1.5-5.46-2.24-8.36-2.24-2.45,0-4.42.61-5.91,1.84-1.5,1.22-2.24,2.9-2.24,5.03,0,2.99,2.76,5.76,8.29,8.29,3.85,1.77,6.62,3.44,8.29,5.03,2.72,2.54,4.08,5.67,4.08,9.38,0,4.44-1.5,7.98-4.49,10.6Z"/>
    </g>
  </g>
  <g id="r">
    <g>
      <path class="cls-1" d="M299.93,137.27c-5.99,0-10.84,4.85-10.84,10.84s4.85,10.84,10.84,10.84,10.84-4.85,10.84-10.84-4.85-10.84-10.84-10.84M299.93,156.24c-4.49,0-8.13-3.64-8.13-8.13s3.64-8.13,8.13-8.13,8.13,3.64,8.13,8.13-3.64,8.13-8.13,8.13"/>
      <path class="cls-1" d="M300.34,149.56h-1.78v3.97h-2.23v-10.84h4.03c1.28,0,2.27.29,2.96.86.7.57,1.04,1.38,1.04,2.42,0,.74-.16,1.36-.48,1.85-.32.49-.81.89-1.46,1.18l2.35,4.43v.1h-2.4l-2.03-3.97ZM298.56,147.75h1.8c.56,0,.99-.14,1.3-.43.31-.29.46-.68.46-1.18s-.14-.91-.43-1.21c-.29-.29-.74-.44-1.34-.44h-1.79v3.25Z"/>
    </g>
  </g>
  <g id="f">
    <path class="cls-1" d="M61.64,28.91c-18.51,0-34.56,12.77-38.73,30.8L0,158.98h52.15c18.51,0,34.56-12.77,38.73-30.8l22.92-99.27h-52.15ZM79.37,75.88h-31.84l-2.5,10.84h38c-1.95,8.46-9.49,14.45-18.17,14.45h-23.17l-2.59,11.2c-1.9,8.25-9.25,14.09-17.72,14.09l11.73-50.8c1.93-8.34,9.35-14.24,17.91-14.24h46.52c-1.95,8.46-9.49,14.45-18.17,14.45Z"/>
  </g>
  <g id="p">
    <g>
      <path class="cls-1" d="M163.21,0c-18.51,0-34.56,12.77-38.73,30.8l-36.27,157.08h52.17c18.51,0,34.56-12.77,38.73-30.8L215.38,0h-52.17ZM184.97,87.35c-1.87,8.09-9.07,13.82-17.38,13.82h-31.68l-2.57,11.14c-1.91,8.28-9.29,14.15-17.79,14.15l15.01-65.04h46.76c6.97,0,12.13,6.49,10.57,13.28l-2.92,12.64Z"/>
      <polygon class="cls-1" points="139.25 86.72 170.56 86.72 173.06 75.88 141.75 75.88 139.25 86.72"/>
    </g>
  </g>
  <g id="t">
    <path class="cls-1" d="M251.35,28.91c-18.51,0-34.56,12.77-38.73,30.8l-22.92,99.27h52.15c18.51,0,34.56-12.77,38.73-30.8l22.92-99.27h-52.15ZM281.67,75.88h-23.93l-8.55,37.01c-1.83,7.94-8.9,13.56-17.05,13.56h-.72l11.68-50.58h-10.37c-6.99,0-12.15-6.5-10.58-13.31l.27-1.16h49.06c6.92,0,12.05,6.44,10.49,13.19l-.29,1.27Z"/>
  </g>
</svg>