<?xml version="1.0" encoding="UTF-8"?>
<svg id="Layer_2" data-name="Layer 2" xmlns="http://www.w3.org/2000/svg" viewBox="0 0 701.91 527.67">
  <defs>
    <style>
      .cls-1 {
        fill: #0db14b;
      }

      .cls-2 {
        fill: #0999e8;
      }

      .cls-3 {
        fill: #0066b3;
      }

      .cls-4 {
        fill: #0647c9;
      }

      .cls-5, .cls-6 {
        fill: #fff;
      }

      .cls-7 {
        fill: #f36f21;
      }

      .cls-8 {
        fill: #1a308b;
      }

      .cls-6 {
        font-family: Inter-Bold, Inter;
        font-size: 51.41px;
        font-variation-settings: 'opsz' 14, 'wght' 700;
        font-weight: 700;
      }
    </style>
  </defs>
  <g id="back">
    <path class="cls-8" d="M218.34,75.89V29.86L343.14,0l114.57,26.42c58.42,13.82,57.82,68.83,57.82,68.83l186.38,43.85v189.29l-110.66,24.93-.96,72.36-117.7,27.39-67.05-16.52-2.32-47.43c-.61-15.99-16-27.22-31.42-22.92l-219.32,52.39L0,377.37V126.34l218.34-50.45L0,126.34"/>
  </g>
  <g id="made_by_fis" data-name="made by fis">
    <path class="cls-4" d="M407.67,436.57v-90c0-8.83-8.11-15.43-16.75-13.63h0S22.68,419.06,22.68,419.06c-17.03,3.96-20.54,19.46-20.54,33.06v61.62c0,8.97,8.35,15.59,17.08,13.55l388.45-90.73"/>
    <text class="cls-6" transform="translate(46.87 486.13) rotate(-13.26) scale(.94 .97) skewX(-13.73)"><tspan x="0" y="0">MADE BY FPT</tspan></text>
    <path class="cls-3" d="M682.74,378.53h3.01c1.97,0,3.58-.29,3.58-2.72s-1.97-2.47-3.58-2.47h-3.04l.04,5.19ZM679.16,370.72h6.8c4.33,0,6.74,1.54,6.74,5.37.2,2.52-1.69,4.73-4.21,4.93-.15.01-.3.02-.45.01l4.91,7.95h-3.58l-4.73-7.95h-2.08v7.85h-3.58l.18-18.16ZM697.57,379.93c-.41-6.74-6.21-11.86-12.94-11.44-6.73.41-11.85,6.21-11.44,12.94.4,6.43,5.72,11.45,12.17,11.46,6.84-.09,12.32-5.71,12.23-12.56,0-.14,0-.27-.01-.41M669.27,379.93c-.02-8.91,7.18-16.14,16.08-16.15,8.91-.02,16.14,7.18,16.16,16.08.02,8.91-7.18,16.14-16.09,16.15h-.07c-8.87-.02-16.06-7.21-16.08-16.08"/>
  </g>
  <g id="F">
    <polygon class="cls-5" points="515.53 388.74 519.59 119.3 683.38 157.25 683.38 201.16 571.71 174.99 571.14 238.7 670.76 261.37 671.34 308.49 569.98 285.62 567.66 401.06 515.53 388.74"/>
    <polygon class="cls-1" points="519.59 119.3 431.9 139.81 430.21 409.65 515.53 388.74 519.59 119.3"/>
    <polygon class="cls-4" points="567.66 401.06 484.19 420.66 430.21 409.65 515.53 388.74 567.66 401.06"/>
    <polygon class="cls-4" points="571.71 174.99 683.38 201.16 571.71 226.54 571.71 174.99"/>
    <line class="cls-4" x1="569.98" y1="285.62" x2="671.34" y2="308.35"/>
    <polyline class="cls-4" points="671.34 308.35 569.04 332.32 569.98 285.62"/>
  </g>
  <g id="B">
    <path class="cls-4" d="M454.52,288.89l-35.19-37.36-76.11,16.02-88.55,21.05,35.79,9.26c27.34,7.07,52.14,12.57,84.65,9.21l79.4-18.18"/>
    <path class="cls-5" d="M343.22,28.81v237.68l91.47,21.12s62.07,13.86,68.53-45.28c6.82-62.42-45.76-73.43-45.76-73.43,0,0,44.04,1.11,36.38-56.55-7.66-57.66-59.15-61.53-59.15-61.53l-91.47-22.01Z"/>
    <path class="cls-4" d="M387.37,74.66l-.11,56.62,34.23,8.2s27.49,6.45,29.96-22.44-27.72-34.37-27.72-34.37l-36.37-8.01Z"/>
    <path class="cls-4" d="M387.12,172.34l-.11,60.59,38.32,9.17s29.85,6.48,32.58-24.33c2.73-30.81-30.62-36.76-30.62-36.76l-40.17-8.67Z"/>
    <polygon class="cls-7" points="258.84 48.92 343.22 29.86 343.22 267.55 258.84 287.61 258.84 48.92"/>
  </g>
  <g id="M">
    <polygon class="cls-5" points="28.1 357.78 63.05 349.63 64.99 211.81 110.41 337.98 136.53 332.94 181.46 185.02 181.46 323.62 218.34 315.47 218.34 102.32 172.53 112.42 123.22 267.71 73.92 135.71 28.1 146.58 28.1 357.78"/>
    <polygon class="cls-4" points="28.1 357.78 63.05 349.63 159.35 373.19 125.19 381.14 28.1 357.78"/>
    <polygon class="cls-4" points="110.41 337.98 136.53 332.94 235.48 355.47 207.87 361.89 110.41 337.98"/>
    <polygon class="cls-4" points="181.46 323.62 218.34 315.47 312.28 337.74 275.27 345.29 181.46 323.62"/>
    <polygon class="cls-2" points="63.05 349.63 64.99 211.81 110.41 337.98 159.65 350.93 159.35 373.19 63.05 349.63"/>
    <polygon class="cls-2" points="181.46 185.02 136.53 332.94 235.48 355.47 242.91 337.74 181.46 323.62 181.46 185.02"/>
    <polygon class="cls-2" points="218.34 102.32 312.28 124.04 312.28 337.74 218.34 315.47 218.34 102.32"/>
    <polygon class="cls-4" points="73.92 135.71 158.76 155.79 123.22 267.71 73.92 135.71"/>
  </g>
</svg>